# xmcd CD database file
#
# Track frame offsets:
#	150
#	18525
#	38325
#	56100
#	82275
#	104250
#	127350
#	128625
#	145650
#	167775
#	187200
#	207825
#
# Disc length: 2823 seconds
#
# Revision: 1
# Processed by: cddbd v1.5.1PL0 Copyright (c) Steve Scherf et al.
# Submitted via: freeDBTagger 0.5
#
DISCID=b10b050c
DTITLE=Every Little Thing - everlasting
DYEAR=1997
DGENRE=blues
TTITLE0=Future World
TTITLE1=Feel My Heart (Album Mix)
TTITLE2=Here and everywhere
TTITLE3=Season (Album Version)
TTITLE4=二人で時代を変えてみたい
TTITLE5=たとえ遠く離れてても…
TTITLE6=micro stress
TTITLE7=Dear My Friends (Album Mix)
TTITLE8=Looking Back On Your Love
TTITLE9=Never Stop
TTITLE10=I'll get over you
TTITLE11=Double Moon
EXTD=
EXTT0=
EXTT1=
EXTT2=
EXTT3=
EXTT4=
EXTT5=
EXTT6=
EXTT7=
EXTT8=
EXTT9=
EXTT10=
EXTT11=
PLAYORDER=
